<?xml version="1.0" standalone="no"?>
<!DOCTYPE svg PUBLIC "-//W3C//DTD SVG 20010904//EN"
 "http://www.w3.org/TR/2001/REC-SVG-20010904/DTD/svg10.dtd">
<svg version="1.0" xmlns="http://www.w3.org/2000/svg"
 width="355.000000pt" height="355.000000pt" viewBox="0 0 355.000000 355.000000"
 preserveAspectRatio="xMidYMid meet">
<metadata>
Created by potrace 1.14, written by Peter Selinger 2001-2017
</metadata>
<g transform="translate(0.000000,355.000000) scale(0.100000,-0.100000)"
fill="#000000" stroke="none">
<path d="M1525 3534 c-313 -47 -577 -160 -847 -362 -62 -45 -237 -217 -278
-271 -14 -18 -35 -45 -46 -59 -63 -79 -178 -280 -214 -374 -11 -29 -25 -62
-30 -73 -37 -82 -79 -261 -100 -420 -9 -66 -7 -381 3 -435 2 -14 8 -45 11 -70
10 -68 53 -226 83 -305 125 -336 335 -614 626 -829 42 -31 79 -56 83 -56 4 0
15 -6 23 -14 33 -30 232 -125 342 -164 146 -51 246 -74 399 -92 77 -10 378 -6
440 5 190 33 298 63 435 120 263 108 521 299 690 510 22 28 42 52 45 55 22 21
117 172 157 250 189 361 245 755 168 1180 -14 79 -64 247 -92 310 -138 308
-295 523 -512 700 -23 19 -48 40 -54 45 -7 6 -57 41 -112 77 -212 139 -430
222 -725 274 -75 13 -405 12 -495 -2z"/>
</g>
</svg>
